<svg xmlns="http://www.w3.org/2000/svg" xmlns:xlink="http://www.w3.org/1999/xlink"><defs><style>
    .sprite-symbol-usage {display: none;}
    .sprite-symbol-usage:target {display: inline;}
  </style><symbol viewBox="0 0 124 124" id="Icon-circle"><path fill="#000" d="M0 62a62 62 0 10124 0A62 62 0 100 62" fill-rule="evenodd" /></symbol><symbol viewBox="0 0 124 124" id="Icon-circle-primary"><path fill="#8b5dcb" d="M0 62a62 62 0 10124 0A62 62 0 100 62" fill-rule="evenodd" /></symbol><symbol viewBox="0 0 7 4" id="Icon-dropdown"><path d="M3.5 4a.489.489 0 01-.347-.144L.144.84A.492.492 0 01.837.144L3.5 2.814 6.163.144a.492.492 0 01.693.696L3.847 3.856A.489.489 0 013.5 4z" fill="#000" fill-rule="nonzero" /></symbol><symbol viewBox="0 0 16 16" id="Icon-external"><path d="M8.422 0H16v7.576l-2.84-2.84-4.263 4.265-1.896-1.897 4.264-4.264L8.422 0zM14 14v-4h2v6H0V0h6v2H2v12h12z" fill="#000" fill-rule="nonzero" /></symbol><symbol viewBox="0 0 16 16" id="Icon-external-light"><path d="M8.422 0H16v7.576l-2.84-2.84-4.263 4.265-1.896-1.897 4.264-4.264L8.422 0zM14 14v-4h2v6H0V0h6v2H2v12h12z" fill="#fff" fill-rule="nonzero" /></symbol><symbol viewBox="0 0 16 16" id="Icon-external-primary"><path d="M8.422 0H16v7.576l-2.84-2.84-4.263 4.265-1.896-1.897 4.264-4.264L8.422 0zM14 14v-4h2v6H0V0h6v2H2v12h12z" fill="#8b5dcb" fill-rule="nonzero" /></symbol><symbol viewBox="0 0 24 24" id="Icon-hamburger-primary"><path d="M0 1h24v4H0V1zm0 9h24v4H0v-4zm0 9h24v4H0v-4z" fill="#000" fill-rule="evenodd" /></symbol><symbol viewBox="0 0 14 14" id="Icon-less"><path fill="#000" d="M0 6h14v2H0z" fill-rule="evenodd" /></symbol><symbol viewBox="0 0 14 14" id="Icon-less-light"><path d="M0 6h14v2H0z" fill="#fff" fill-rule="evenodd" /></symbol><symbol viewBox="0 0 14 14" id="Icon-more"><path d="M6 6V0h2v6h6v2H8v6H6V8H0V6h6z" fill-rule="evenodd" /></symbol><symbol viewBox="0 0 14 14" id="Icon-more-light"><path d="M6 6V0h2v6h6v2H8v6H6V8H0V6h6z" fill="#fff" fill-rule="evenodd" /></symbol><symbol viewBox="0 0 26 26" id="Icon-search"><path d="M25 23.667L23.667 25l-6.91-6.828a9.618 9.618 0 01-6.09 2.161C5.328 20.333 1 16.005 1 10.667 1 5.328 5.328 1 10.667 1c5.338 0 9.666 4.328 9.666 9.667 0 2.31-.81 4.43-2.161 6.09L25 23.668zm-14.333-5.334a7.666 7.666 0 100-15.333 7.666 7.666 0 100 15.333z" stroke="#000" fill="#000" fill-rule="nonzero" /></symbol><symbol viewBox="0 0 26 26" id="Icon-search-light"><path d="M25 23.667L23.667 25l-6.91-6.828a9.618 9.618 0 01-6.09 2.161C5.328 20.333 1 16.005 1 10.667 1 5.328 5.328 1 10.667 1c5.338 0 9.666 4.328 9.666 9.667 0 2.31-.81 4.43-2.161 6.09L25 23.668zm-14.333-5.334a7.666 7.666 0 100-15.333 7.666 7.666 0 100 15.333z" stroke="#fff" fill="#fff" fill-rule="nonzero" /></symbol><symbol viewBox="0 0 512 512" id="icon-alert"><path d="M507.494 426.066L282.864 53.537a31.372 31.372 0 00-53.73 0L4.506 426.066a31.37 31.37 0 0026.864 47.569h449.259a31.372 31.372 0 0026.865-47.569zM256.167 167.227c12.901 0 23.817 7.278 23.817 20.178 0 39.363-4.631 95.929-4.631 135.292 0 10.255-11.247 14.554-19.186 14.554-10.584 0-19.516-4.3-19.516-14.554 0-39.363-4.63-95.929-4.63-135.292 0-12.9 10.584-20.178 24.146-20.178zm.331 243.791c-14.554 0-25.471-11.908-25.471-25.47 0-13.893 10.916-25.47 25.471-25.47 13.562 0 25.14 11.577 25.14 25.47 0 13.562-11.578 25.47-25.14 25.47z" /></symbol><symbol viewBox="0 0 612 612" id="icon-warning"><path d="M612 306C612 137.004 474.995 0 306 0 137.004 0 0 137.004 0 306c0 168.995 137.004 306 306 306 168.995 0 306-137.005 306-306zM312.954 139.091c19.195 0 34.773 15.578 34.773 34.773 0 19.194-15.578 34.772-34.773 34.772-19.194 0-34.772-15.578-34.772-34.772 0-19.195 15.578-34.773 34.772-34.773zM236.455 459h41.727V264.273h-41.727v-27.818h111.273V459h41.727v27.818h-153V459z" /></symbol><symbol viewBox="0 0 307.97 86.04" id="logo-en"><defs><style>#logo-en .cls-1{fill:#231f20}</style></defs><g id="logo-en_Layer_2" data-name="Layer 2"><g id="logo-en_Layer_1-2" data-name="Layer 1"><path class="cls-1" d="M36.61 86l-.07-3.56a.75.75 0 00-.38-.64 2.61 2.61 0 01-.09-4.59.74.74 0 00.38-.66c-.11-6-.23-10.78-.46-14.52-.13-2.11-.29-3.73-.48-5a6 6 0 00-.92-2.82 2.43 2.43 0 00-1.8-.93 2.8 2.8 0 00-1.8.85 2.71 2.71 0 01-1.83.73 2.39 2.39 0 01-1.67-.66 2.28 2.28 0 01-.71-1.66v-.3a.76.76 0 00-.3-.7.83.83 0 00-.48-.15.75.75 0 00-.26 0 2.64 2.64 0 01-.86.15 2.5 2.5 0 01-1.9-.88 2.29 2.29 0 01-.52-1.46 2.32 2.32 0 01.3-1.12.79.79 0 000-.76.78.78 0 00-.66-.38 2.44 2.44 0 01-2.07-1.25 2.11 2.11 0 01-.28-1.07 2.34 2.34 0 01.69-1.64.76.76 0 00.21-.69.79.79 0 00-.47-.55 2.3 2.3 0 01-.45-4.14.75.75 0 00-.05-1.3 2.34 2.34 0 01-1.25-2 2.29 2.29 0 011-1.9.76.76 0 00.33-.56.78.78 0 00-.24-.61 2.36 2.36 0 01-.74-1.7 2.18 2.18 0 01.24-1 2.45 2.45 0 012.2-1.3.79.79 0 00.69-.41.76.76 0 00-.07-.81 2.38 2.38 0 01-.46-1.38 2.13 2.13 0 01.25-1 2.4 2.4 0 011.81-1.28.8.8 0 00.56-.25.73.73 0 00.13-.57.75.75 0 00-.76-.64h-.12a4.1 4.1 0 00-.48.1L16.45 4.68a4.26 4.26 0 012.05-2.76 4.16 4.16 0 012.11-.59 3.26 3.26 0 011.71.46l.17 1c1 6.31 3.42 21.08 3.92 23.37a4.3 4.3 0 01.11.87 3 3 0 01-.7 1.69l-.13.22a18.5 18.5 0 00-2.15 4.8 14.78 14.78 0 00-.61 4.36c0 5.18 2.14 10.1 5.28 12.26a6.24 6.24 0 003.41 1.25A3.26 3.26 0 0034.44 50a6.86 6.86 0 00.86-3.64v-.44c0-1 0-2.36-.07-3.95s0-3.4-.07-5.14a32.9 32.9 0 00-.75-7.48l-.06-.14a1.2 1.2 0 00-.09-.21v-.05a5.65 5.65 0 00-3.48-2.48v-.88a14.81 14.81 0 01.15-2.06c1.25-1.41 3.83-2.32 6.61-2.32h.08a11.38 11.38 0 014.64.95.88.88 0 00.24.11 5.68 5.68 0 011.72 1.26 14.59 14.59 0 01.15 2.06v.88a5.65 5.65 0 00-3.48 2.48 1.29 1.29 0 00-.12.26.53.53 0 000 .12c-.48 1.38-.64 3.9-.75 7.5 0 1.74-.06 3.55-.08 5.15s0 3-.06 3.94v.44a6.83 6.83 0 00.7 3.64 3.25 3.25 0 002.81 1.61 6.37 6.37 0 003.41-1.25c3.15-2.16 5.28-7.08 5.29-12.26a14.82 14.82 0 00-.62-4.36 18.68 18.68 0 00-2.14-4.8l-.15-.24a2.89 2.89 0 01-.68-1.7 4.58 4.58 0 01.11-.86c.53-2.42 3.19-18.84 4.06-24.24v-.13a3.28 3.28 0 011.72-.46 4.21 4.21 0 012.11.59 4.26 4.26 0 012 2.76L52.24 21a4.1 4.1 0 00-.48-.1h-.12a.77.77 0 00-.77.65.76.76 0 00.66.86 2.44 2.44 0 011.81 1.29 2.25 2.25 0 01.25 1 2.32 2.32 0 01-.47 1.38l-.06.09a.82.82 0 00-.09.39v.15a.79.79 0 00.64.51h.18a2.44 2.44 0 012.11 1.31 2.07 2.07 0 01.25 1 2.32 2.32 0 01-.74 1.69.75.75 0 00-.24.62.81.81 0 00.33.56 2.28 2.28 0 011 1.86 2.34 2.34 0 01-1.25 2 .77.77 0 00-.41.65.75.75 0 00.36.66 2.37 2.37 0 011.1 2 2.34 2.34 0 01-1.54 2.18.74.74 0 00-.48.55.78.78 0 00.2.69 2.31 2.31 0 01.52 2.83 2.48 2.48 0 01-2.09 1.25.78.78 0 00-.65.38.77.77 0 000 .75 2.25 2.25 0 01-.26 2.59 2.46 2.46 0 01-1.9.87 2.54 2.54 0 01-.86-.14.75.75 0 00-.26-.05.73.73 0 00-.47.17.72.72 0 00-.3.68v.31a2.28 2.28 0 01-.71 1.66 2.41 2.41 0 01-1.67.66 2.66 2.66 0 01-1.81-.71 2.77 2.77 0 00-1.82-.86 2.4 2.4 0 00-1.8.91 6.1 6.1 0 00-.92 2.82c-.62 4-.8 11.78-.94 19.47a.76.76 0 00.38.67 2.63 2.63 0 011.34 2.28 2.66 2.66 0 01-1.41 2.31.73.73 0 00-.4.65L38.42 86zM46 67.26a3.19 3.19 0 01-1.54-.37L44 56a4.22 4.22 0 001.9.46h.1l2.12 9.94a2.77 2.77 0 01-1.86.84zm-17 0h-.27a2.73 2.73 0 01-1.86-.85L29 56.47h.14a4.29 4.29 0 001.9-.46l-.49 10.88a3.3 3.3 0 01-1.55.37zm21.82-.68a2.8 2.8 0 01-1.16-.24l-2.15-10.23a3.64 3.64 0 001.1-.73 3.84 3.84 0 00.27-.29l4.58 10.19a2.87 2.87 0 01-1.3 1 3.3 3.3 0 01-1.31.3zm-26.69 0a3.26 3.26 0 01-1.3-.27 2.87 2.87 0 01-1.3-1l4.58-10.19.27.29a4 4 0 001.09.74l-2.15 10.19a2.74 2.74 0 01-1.16.24zm-4.42-2.09a3.76 3.76 0 01-2.16-.72 3.5 3.5 0 01-1.08-1.23l6.73-9.73a4 4 0 001.67.38h.37l-5 11.23a4 4 0 01-.5.07zm35.53 0a3.89 3.89 0 01-.49 0l-5-11.21v-.07a2.36 2.36 0 00.37 0 4 4 0 001.68-.38l6.73 9.73a3.5 3.5 0 01-1.08 1.23 3.76 3.76 0 01-2.18.7zm-2.19-12.57a1 1 0 00.17-.18 3.8 3.8 0 00.67-1.19l9.16 8.73a3.32 3.32 0 01-.85 1.34 3.64 3.64 0 01-2.4 1.06zm-37.83 9.76a3.64 3.64 0 01-2.4-1.06 3.32 3.32 0 01-.82-1.34l9.16-8.73a4 4 0 00.66 1.19l.18.18zM54 48.52a.29.29 0 000-.09 4 4 0 001.57-.89L67.07 55a3.23 3.23 0 01-.56 1.65 3.55 3.55 0 01-2.33 1.54zm-43.16 9.71a3.48 3.48 0 01-2.32-1.54A3.15 3.15 0 018 55l11.52-7.5a4 4 0 001.57.89.29.29 0 010 .09zm-3.73-4.47A3.51 3.51 0 015.18 52 3 3 0 015 49.65l13.29-5.46a3.64 3.64 0 00-.05.56 3.69 3.69 0 00.34 1.56zm49.36-7.47a3.67 3.67 0 00.33-1.54 3.39 3.39 0 000-.55L70 49.64a3 3 0 01-.16 2.36 3.53 3.53 0 01-1.93 1.78zm.19-3.79a3.84 3.84 0 001-1.38l14.95 2.79a3 3 0 01.24 2.18 3.41 3.41 0 01-1.85 2.3zM4 48.39a3.4 3.4 0 01-1.83-2.3 3 3 0 01.24-2.19l15-2.77a3.89 3.89 0 001 1.37zm-2-5.95a4 4 0 01-1.68-2.82A3.54 3.54 0 011 37l16.64.81a3.73 3.73 0 00-.52 1.84zm56-2.81a3.61 3.61 0 00-.53-1.84L74 37a3.58 3.58 0 01.66 2.64 4 4 0 01-1.65 2.82zM1 35.45a4 4 0 01-1-2.74A3.54 3.54 0 011.2 30l15.69 4.59a3.81 3.81 0 00.5 1.71zm56.59.81a3.73 3.73 0 00.5-1.75L73.82 30A3.55 3.55 0 0175 32.71a4 4 0 01-1 2.74zM1.35 28.41a3.88 3.88 0 01-.43-3.28A3.5 3.5 0 012.7 23l15.23 8.82a4.07 4.07 0 00-.76 1.18zM57.84 33a3.85 3.85 0 00-.75-1.21L72.32 23a3.5 3.5 0 011.78 2.16 3.84 3.84 0 01-.44 3.28zm-.1-3.39a3.74 3.74 0 00-.41-1.7.86.86 0 00-.1-.16l11.89-11.37a3.54 3.54 0 012.37 2 3.89 3.89 0 010 3.27l-13.76 8zM3.52 21.67a3.86 3.86 0 010-3.27 3.53 3.53 0 012.37-2l11.9 11.35a.86.86 0 00-.1.16 3.71 3.71 0 00-.41 1.7zm3.34-6.5a3.83 3.83 0 01.43-3.08 3.53 3.53 0 012.59-1.77L19.93 26a3.71 3.71 0 00-1.11.59zM56.2 26.6a4.23 4.23 0 00-1.11-.6l10-15.69a3.53 3.53 0 012.59 1.77 3.84 3.84 0 01.43 3.07zM11 9.15a4.09 4.09 0 011-2.41 3.65 3.65 0 012.73-1.32h.41l6.3 16.24A3.86 3.86 0 0020.29 23a3.79 3.79 0 00-.18.42zm43.91 14.27a3.79 3.79 0 00-.18-.42 4 4 0 00-1.1-1.31l6.3-16.24a3 3 0 01.42 0 3.65 3.65 0 012.72 1.32 4 4 0 011 2.41zm-22.58-2.78a6.76 6.76 0 01-1.57-4.34 8.11 8.11 0 010-.86A9.47 9.47 0 0133.2 11l.23-.3c1-1.33 2.12-2.7 2.14-4.34a3.78 3.78 0 000-.51 11.85 11.85 0 01-.13-1.68A6.18 6.18 0 0136.81 0v.36a12.67 12.67 0 002.12 6.18c-.48.7-1 1.38-1.57 2.09s-.89 1.14-1.36 1.73c-1.4 1.94-2.76 4.06-2.76 6.66a8.09 8.09 0 00.64 3.07 11.45 11.45 0 00-1.55.55zm10.08-.11a13 13 0 00-4.9-.91 13.7 13.7 0 00-2 .15 6.66 6.66 0 01-.68-2.77c0-2.17 1.22-4 2.48-5.78.4-.56.84-1.13 1.27-1.68L39 9c.35-.46.71-.93 1.05-1.4l.56-.84c.23-.36.44-.71.64-1.07A11.72 11.72 0 0042 4.2a12.11 12.11 0 01.32 2.73 9.11 9.11 0 010 .93A6.21 6.21 0 0142 9.34c-.1.33-.23.67-.38 1a12.44 12.44 0 01-.62 1.25c-.17.33-.36.64-.55.95s-.35.58-.53.86a6.83 6.83 0 00-1.34 3.06 1.92 1.92 0 000 .41c.13.51.31 1.19 1.16 1.29a1.11 1.11 0 001-.68 2.32 2.32 0 00.2-1 3.39 3.39 0 00-.32-1.4c.3-.54.71-1.18 1.1-1.79.22-.37.47-.79.71-1.25a9.63 9.63 0 011.36 4.55 6.3 6.3 0 01-1.38 3.94zm-9.95-11.1a12.9 12.9 0 00.3-2.67 10.34 10.34 0 00-.4-2.86A5.12 5.12 0 0134 6.72a6.82 6.82 0 01-1.54 2.71zM117.42 22.46c0 6.05-4 9.93-10.83 9.93s-10.84-3.88-10.84-9.93V6h5.55v16c0 3.38 1.9 5.4 5.29 5.4s5.29-2 5.29-5.4V6h5.54zM144.57 32.29l-14.22-13.65-1.69-1.47v14.72h-5.44V5.58h.22l14.18 13.64 1.65 1.48V6h5.48v26.29zM150.9 31.89V6h5.55v25.89zM172.32 32.29h-.21L159.33 6h6l3.38 7.49c1.33 3 2.52 5.54 3.42 8.06.76-1.83 2.34-5.5 3.49-8.06L179.05 6h6zM188 31.89V6h16.67v4.65h-11.14v5.9H203V21h-9.43v6.27h11.66v4.64zM218.8 6c6 0 10 3 10 8.53a7.57 7.57 0 01-4.93 7.38l5.44 10h-5.87l-4.57-9.07h-3.74v9.07h-5.44V6zm-3.67 4.65v7.74h4c2.44 0 4.14-1.23 4.14-3.86s-1.77-3.88-4.29-3.88zM232.55 30.92v-5.33a16.86 16.86 0 006.52 1.87 9.42 9.42 0 002.3-.14c2-.29 3.13-1.05 3.13-2.31 0-1.72-1.55-2.62-5.11-3.92-4.53-1.65-7.2-3.56-7.2-8.06s3.82-7.56 9.4-7.56a18 18 0 016.76 1.29v5.12a13.26 13.26 0 00-6.35-1.59c-2.67 0-4.39 1.05-4.39 2.7s1.4 2.56 4.93 3.89c4.53 1.76 7.34 3.67 7.34 8 0 4.68-3.53 7.48-9.64 7.48a20.18 20.18 0 01-7.69-1.44zM254.22 31.89V6h5.54v25.89zM276.25 10.62v21.27h-5.54V10.62h-7.24V6h20v4.65zM289.83 6l5.93 10.62L301.7 6h6.3l-9.43 15.88v10H293v-10L283.6 6zM108 40.32a13.47 13.47 0 11-13.54 13.46A13.29 13.29 0 01108 40.32zm0 21.85c4.68 0 8-3.74 8-8.39s-3.31-8.38-8-8.38-8 3.78-8 8.38 3.35 8.39 8 8.39zM131.68 45.47v6.19h8.64v4.57h-8.64v10.51h-5.54V40.82h15.8v4.65zM163.5 45.47v21.27H158V45.47h-7.24v-4.65h20.05v4.65zM195.79 57.31c0 6-4 9.94-10.83 9.94s-10.84-3.89-10.84-9.94V40.82h5.55v16c0 3.38 1.9 5.4 5.29 5.4s5.29-2 5.29-5.4v-16h5.54zM210.7 40.82c6 0 10 3 10 8.54a7.56 7.56 0 01-4.93 7.37l5.44 10h-5.87l-4.57-9.07H207v9.07h-5.44V40.82zm-3.7 4.65v7.74h4c2.44 0 4.14-1.23 4.14-3.85s-1.77-3.89-4.29-3.89zM231.18 53.06l10.08-12.24h6.55l-9.18 10.84L248 66.74h-6.2l-6.87-11.52-3.71 4.21v7.31h-5.54V40.82h5.54zM272.51 57.31c0 6-4 9.94-10.84 9.94s-10.83-3.89-10.83-9.94V40.82h5.54v16c0 3.38 1.91 5.4 5.29 5.4s5.29-2 5.29-5.4v-16h5.55z" /></g></g></symbol><symbol viewBox="0 0 248.28 287.71" id="logo-en-fi"><defs><style>#logo-en-fi .cls-1{fill:#231f20}</style></defs><g id="logo-en-fi_Layer_2" data-name="Layer 2"><g id="logo-en-fi_Layer_1-2" data-name="Layer 1"><path class="cls-1" d="M45.24 103.74l-.08-4.29a.93.93 0 00-.46-.78 3.13 3.13 0 01-.1-5.53.92.92 0 00.45-.8c-.13-7.24-.27-13-.56-17.5-.16-2.54-.35-4.5-.58-6a7.14 7.14 0 00-1.1-3.39 2.93 2.93 0 00-2.17-1.12 3.31 3.31 0 00-2.17 1 3.26 3.26 0 01-2.21.88 2.9 2.9 0 01-2-.79 2.73 2.73 0 01-.86-2v-.36a.91.91 0 00-.35-.84 1 1 0 00-.58-.19.87.87 0 00-.32.06 3.19 3.19 0 01-1 .18 3 3 0 01-2.29-1.07 2.74 2.74 0 01-.63-1.75 2.69 2.69 0 01.36-1.36.92.92 0 000-.91.93.93 0 00-.79-.46 2.93 2.93 0 01-2.5-1.5 2.66 2.66 0 01-.36-1.22 2.82 2.82 0 01.83-2 .89.89 0 00.25-.84.91.91 0 00-.57-.65 2.79 2.79 0 01-.54-5 .9.9 0 00.43-.81.92.92 0 00-.48-.76 2.75 2.75 0 01-.28-4.76.9.9 0 00.12-1.41 2.73 2.73 0 01-.6-3.27 2.93 2.93 0 012.65-1.57.94.94 0 00.82-.49.88.88 0 00-.08-1 2.89 2.89 0 01-.55-1.66 2.63 2.63 0 01.3-1.23A2.89 2.89 0 0129.43 27a1 1 0 00.62-.38.92.92 0 00-.76-1.45h-.15l-.58.12-7.62-19.64A5.26 5.26 0 0126 1.6a4 4 0 012 .55l.19 1.21c1.24 7.6 4.12 25.41 4.73 28.17a4.82 4.82 0 01.13 1 3.55 3.55 0 01-.84 2l-.16.26a22.69 22.69 0 00-2.58 5.79 17.62 17.62 0 00-.75 5.25c0 6.25 2.58 12.19 6.38 14.78a7.43 7.43 0 004.11 1.51 3.91 3.91 0 003.39-1.94 8.21 8.21 0 001-4.38v-.54c0-1.19-.06-2.84-.08-4.75s0-4.12-.09-6.21c-.11-3.53-.27-7.14-.9-9l-.07-.17-.11-.25v-.06a6.8 6.8 0 00-4.2-3v-1.07a17.88 17.88 0 01.18-2.48c1.51-1.71 4.62-2.8 8-2.8h.1A13.62 13.62 0 0152 26.64a1.18 1.18 0 00.28.12 7 7 0 012.09 1.52 19.31 19.31 0 01.18 2.48v1.08a6.78 6.78 0 00-4.2 3 1.92 1.92 0 00-.14.31.33.33 0 000 .15c-.58 1.66-.78 4.69-.91 9-.05 2.1-.07 4.29-.09 6.22s0 3.55-.07 4.75v.52a8.22 8.22 0 001 4.39 3.91 3.91 0 003.38 1.94 7.53 7.53 0 004.12-1.51c3.8-2.59 6.36-8.53 6.37-14.78a18 18 0 00-.74-5.25 22.09 22.09 0 00-2.59-5.79l-.17-.29a3.51 3.51 0 01-.82-2 5 5 0 01.13-1c.64-2.91 3.84-22.72 4.89-29.23v-.16a4 4 0 011.99-.51 5 5 0 012.54.72 5.12 5.12 0 012.48 3.33l-7.63 19.67-.58-.12h-.15a.92.92 0 00-.92.78.87.87 0 00.17.68.91.91 0 00.62.36 2.92 2.92 0 012.18 1.55 2.62 2.62 0 01.3 1.22 2.84 2.84 0 01-.56 1.67l-.08.1v.06a1.08 1.08 0 00-.1.48l.06.17a.93.93 0 00.76.62H66a2.91 2.91 0 012.54 1.57 2.49 2.49 0 01.31 1.22 2.76 2.76 0 01-.9 2 1 1 0 00-.28.75.89.89 0 00.4.67 2.8 2.8 0 011.24 2.25v.05a2.84 2.84 0 01-1.51 2.47.88.88 0 00-.49.77.93.93 0 00.43.81 2.79 2.79 0 011.32 2.35 2.81 2.81 0 01-1.86 2.62.94.94 0 00-.57.66 1 1 0 00.24.84 2.79 2.79 0 01.84 2 2.74 2.74 0 01-.32 1.29 3 3 0 01-2.52 1.5.94.94 0 00-.78.46.9.9 0 000 .9 2.75 2.75 0 01.36 1.37 2.69 2.69 0 01-.63 1.75 3 3 0 01-2.29 1.06 3.38 3.38 0 01-1-.17.78.78 0 00-.31-.06 1 1 0 00-.94 1 2.4 2.4 0 010 .37 2.73 2.73 0 01-.86 2 2.89 2.89 0 01-2 .8 3.25 3.25 0 01-2.18-.85 3.37 3.37 0 00-2.24-.99 2.91 2.91 0 00-2.16 1.11 7.16 7.16 0 00-1.11 3.4c-.75 4.76-1 14.2-1.13 23.47a.92.92 0 00.45.81 3.13 3.13 0 01-.05 5.53.93.93 0 00-.48.79l-.07 4.28zM56.55 81.1a4 4 0 01-1.86-.45l-.59-13.12a5.13 5.13 0 002.29.56h.17l2.56 12a3.43 3.43 0 01-2.24 1zm-20.45 0h-.33a3.41 3.41 0 01-2.24-1l2.56-12h.17a5 5 0 002.29-.57L38 80.65a4 4 0 01-1.9.45zm26.32-.83A3.5 3.5 0 0161 80l-2.61-12.34a4.86 4.86 0 001.32-.89 3.59 3.59 0 00.32-.35l5.52 12.29A3.41 3.41 0 0164 80a4.08 4.08 0 01-1.58.27zm-32.19 0a4.12 4.12 0 01-1.57-.27 3.41 3.41 0 01-1.56-1.24l5.52-12.29a2.73 2.73 0 00.33.35 4.53 4.53 0 001.31.89L31.63 80a3.5 3.5 0 01-1.4.27zm-5.32-2.52a4.55 4.55 0 01-2.61-.86A4.17 4.17 0 0121 75.4l8.11-11.72a4.82 4.82 0 002 .45 3.17 3.17 0 00.44 0v.06L25.51 77.7a4 4 0 01-.6.05zm42.83 0a3.81 3.81 0 01-.59 0l-6.07-13.56a3.31 3.31 0 00.44 0 4.82 4.82 0 002-.45l8.14 11.66a4.2 4.2 0 01-1.31 1.49 4.55 4.55 0 01-2.61.86zM65.06 62.6a1.1 1.1 0 00.21-.22 4.74 4.74 0 00.8-1.44l11.05 10.54a3.87 3.87 0 01-1 1.6 4.41 4.41 0 01-2.9 1.29zM19.45 74.37a4.4 4.4 0 01-2.89-1.28 4 4 0 01-1-1.61l11-10.54a4.74 4.74 0 00.8 1.44 2.18 2.18 0 00.21.22zM66.2 58.5v-.11a4.88 4.88 0 001.89-1.07l13.9 9a3.83 3.83 0 01-.68 2 4.27 4.27 0 01-2.81 1.87zm-52 11.71a4.25 4.25 0 01-2.8-1.86 3.85 3.85 0 01-.69-2l13.9-9.05a4.81 4.81 0 001.89 1.07.36.36 0 010 .11zm-4.5-5.4a4.28 4.28 0 01-2.33-2.13 3.65 3.65 0 01-.23-2.82l16-6.58a5.19 5.19 0 00-.05.68 4.38 4.38 0 00.41 1.87zm59.51-9a4.46 4.46 0 00.38-1.81 3.79 3.79 0 00-.06-.67l16 6.57a3.65 3.65 0 01-.23 2.82 4.25 4.25 0 01-2.3 2.09zm.23-4.58a4.6 4.6 0 001.17-1.66l18 3.36a3.63 3.63 0 01.29 2.63 4.06 4.06 0 01-2.22 2.77zM6 58.34a4.1 4.1 0 01-2.21-2.77A3.63 3.63 0 014 52.94l18-3.35a4.66 4.66 0 001.17 1.65zm-2.52-7.17a4.84 4.84 0 01-2-3.4 4.34 4.34 0 01.81-3.19l20.06 1a4.49 4.49 0 00-.63 2.22zm67.45-3.39a4.46 4.46 0 00-.63-2.22l20.07-1a4.29 4.29 0 01.8 3.19 4.84 4.84 0 01-2 3.4zm-68.58-5a4.92 4.92 0 01-1.25-3.35 4.27 4.27 0 011.44-3.31l18.93 5.53a4.48 4.48 0 00.6 2.06zm68.22 1a4.41 4.41 0 00.61-2.1l18.93-5.49a4.28 4.28 0 011.44 3.32 4.89 4.89 0 01-1.24 3.3zM2.73 34.26a4.71 4.71 0 01-.52-4 4.25 4.25 0 012.14-2.6l18.37 10.67a4.74 4.74 0 00-.91 1.46zm68.11 5.53a4.39 4.39 0 00-.91-1.46L88.3 27.69a4.25 4.25 0 012.14 2.6 4.67 4.67 0 01-.52 4zm-.12-4.09a4.46 4.46 0 00-.5-2.05.82.82 0 00-.12-.2l14.33-13.7a4.23 4.23 0 012.86 2.44 4.68 4.68 0 010 3.94l-16.57 9.61zM5.35 26.13a4.68 4.68 0 010-3.94 4.3 4.3 0 012.86-2.44l14.34 13.7-.12.2a4.44 4.44 0 00-.5 2.06zm4-7.84a4.68 4.68 0 01.52-3.72A4.3 4.3 0 0113 12.44l12.13 18.91a4.87 4.87 0 00-1.34.73zm59.51 13.79a4.7 4.7 0 00-1.34-.72l12.12-18.92a4.32 4.32 0 013.13 2.13 4.69 4.69 0 01.51 3.71zM14.32 11a4.82 4.82 0 011.19-2.92 4.4 4.4 0 013.29-1.55 2.7 2.7 0 01.49 0l7.6 19.59a4.55 4.55 0 00-1.32 1.57c-.09.17-.16.34-.23.51zm53 17.2c-.07-.17-.14-.34-.23-.51a4.61 4.61 0 00-1.31-1.57l7.58-19.55a2.74 2.74 0 01.5 0 4.38 4.38 0 013.28 1.59A4.82 4.82 0 0178.33 11zm-27.24-3.31a8.2 8.2 0 01-1.89-5.24 8.64 8.64 0 01.06-1c.23-1.91 1.49-3.63 2.88-5.37l.28-.36C42.67 11.29 44 9.64 44 7.65A3.82 3.82 0 0044 7a14 14 0 01-.16-2 7.51 7.51 0 011.69-5v.44c0 2.79 1.35 5.42 2.56 7.44-.59.85-1.22 1.66-1.89 2.53-.53.68-1.07 1.37-1.58 2.08-1.69 2.34-3.34 4.9-3.34 8a9.76 9.76 0 00.78 3.7 13.18 13.18 0 00-1.98.7zm12.15-.14a15.69 15.69 0 00-5.9-1.1 16.7 16.7 0 00-2.47.18 8.12 8.12 0 01-.77-3.31c0-2.62 1.48-4.88 3-7 .49-.67 1-1.36 1.54-2l.55-.71c.42-.55.85-1.11 1.26-1.69.24-.33.47-.66.69-1s.52-.85.76-1.28a13.79 13.79 0 00.8-1.78 14.28 14.28 0 01.39 3.29v1.13a8 8 0 01-.34 1.78 10.56 10.56 0 01-.46 1.24c-.24.55-.52 1.08-.74 1.48s-.44.77-.66 1.14l-.65 1a8.11 8.11 0 00-1.61 3.68 2.73 2.73 0 000 .5c.17.61.38 1.43 1.41 1.55a1.34 1.34 0 001.23-.81 2.77 2.77 0 00.24-1.16 4.2 4.2 0 00-.39-1.69c.37-.65.85-1.42 1.32-2.16.27-.45.57-1 .87-1.5a11.58 11.58 0 011.63 5.48 7.51 7.51 0 01-1.7 4.74zm-12-13.38a15.25 15.25 0 00.36-3.22 12.58 12.58 0 00-.48-3.44 6.07 6.07 0 012 3.4 8.39 8.39 0 01-1.87 3.26zM16.68 135.72v25.41h-6.62v-25.41H1.42v-5.55h24v5.55zM55.25 149.87c0 7.22-4.77 11.86-12.94 11.86s-12.94-4.64-12.94-11.86v-19.7H36v19.05c0 4 2.28 6.45 6.32 6.45s6.32-2.41 6.32-6.45v-19.05h6.62zM73.06 130.17c7.18 0 12 3.57 12 10.19a9.06 9.06 0 01-5.89 8.82l6.49 11.95h-7l-5.52-10.83h-4.47v10.83h-6.49v-31zm-4.39 5.55V145h4.73c2.92 0 4.94-1.46 4.94-4.6s-2.1-4.64-5.11-4.64zM116.36 149.87c0 7.22-4.78 11.86-13 11.86s-12.94-4.64-12.94-11.86v-19.7h6.62v19.05c0 4 2.28 6.45 6.32 6.45s6.32-2.41 6.32-6.45v-19.05h6.63zM148.78 161.61l-17-16.3-2-1.76v17.58h-6.49V129.7h.26l16.93 16.3 2 1.76v-17.59H149v31.44zM7.44 172.19l7.09 12.69 7.1-12.69h7.48l-11.27 19v12h-6.62v-12L0 172.19zM32.08 203.15v-31h6.62v25.42h11.91v5.54zM55.38 203.15v-31H62v31zM83.59 171.59a16.08 16.08 0 11-16.21 16.08 15.87 15.87 0 0116.21-16.08zm0 26.1c5.59 0 9.55-4.47 9.55-10s-4-10-9.55-10-9.55 4.52-9.55 10 3.96 10 9.55 10zM111.84 192.57v10.58h-6.62v-31h10.06c7.14 0 11.91 3.53 11.91 10.19s-4.77 10.19-11.91 10.19zm0-14.83V187h3.78c2.88 0 4.86-1.5 4.86-4.6s-2.06-4.64-5-4.64zM132 203.15v-31h6.62v31zM144.56 202v-6.36a20.22 20.22 0 007.78 2.23 11.1 11.1 0 002.76-.17c2.36-.34 3.74-1.25 3.74-2.75 0-2.06-1.85-3.14-6.11-4.69-5.42-2-8.6-4.25-8.6-9.63s4.56-9 11.22-9a21.31 21.31 0 018.09 1.55v6.1a15.92 15.92 0 00-7.57-1.89c-3.18 0-5.25 1.25-5.25 3.23 0 1.8 1.68 3 5.9 4.64 5.41 2.11 8.77 4.39 8.77 9.59 0 5.59-4.22 8.94-11.53 8.94a24.17 24.17 0 01-9.2-1.79zM182.79 177.74v25.41h-6.62v-25.41h-8.65v-5.55h23.95v5.55zM210.14 171.59a16.08 16.08 0 11-16.22 16.08 15.87 15.87 0 0116.22-16.08zm0 26.1c5.59 0 9.54-4.47 9.54-10s-4-10-9.54-10-9.55 4.52-9.55 10 3.96 10 9.55 10zM27.78 234.51c0 7-4.35 11.18-11.61 11.18S4.6 241.52 4.6 234.51v-20.3h3.27v20.13c0 5.2 3.09 8.29 8.3 8.29s8.34-3.09 8.34-8.29v-20.13h3.27zM40.5 222.94c-.3-.34-.64-.73-.9-1.07v23.3h-3.22V213.7l19.74 22.74.9 1.08v-23.31h3.27v31.48zM69.62 245.17v-31h3.26v31zM91.72 245.69h-.09l-13.89-31.48h3.53l5.85 13.72c1.67 3.91 3.09 7 4.55 10.62 1.47-3.61 2.88-6.71 4.56-10.62l5.85-13.72h3.57zM110.51 245.17v-31h18.66V217h-15.39v11.1h13v2.8h-13v11.52h16v2.75zM146.41 214.21c6.54 0 10.54 3.44 10.54 9.2a8.58 8.58 0 01-6.8 8.69l7.27 13.07h-3.65l-6.84-12.6h-7.05v12.6h-3.27v-31zm-6.53 2.79v12.9h6.62c4.47 0 7.14-2.4 7.14-6.45s-2.76-6.45-7.36-6.45zM162.62 243.84v-3.27a20.34 20.34 0 008.6 2.15c4 0 7.14-1.81 7.14-4.94s-1.68-4.82-7.14-6.76c-6.15-2.19-8.68-4.81-8.68-9.28 0-5.12 4.38-8 9.93-8a19.23 19.23 0 017.52 1.59v3.18a17.75 17.75 0 00-7.39-1.81c-4 0-6.84 1.94-6.84 5 0 2.79 1.51 4.73 7.05 6.75 6.19 2.19 8.77 4.69 8.77 9.2 0 5.12-4.12 8.13-10.19 8.13a22.14 22.14 0 01-8.77-1.94zM188.16 245.17v-31h3.27v31zM209.79 217v28.21h-3.27V217H197v-2.75h22.32V217zM226.05 214.21l9.28 15.44 9.29-15.44h3.66L237 232.79v12.38h-3.3v-12.38l-11.31-18.58zM18.71 255.72a16 16 0 010 32 16 16 0 010-32zm0 28.93c7.22 0 12.38-5.59 12.38-12.94s-5.16-12.94-12.38-12.94-12.43 5.59-12.43 12.94 5.24 12.94 12.43 12.94zM44.68 259v11.31h12.21V273H44.68v14.15h-3.27v-31h17.71V259zM83.38 259v28.21h-3.27V259H70.6v-2.75h22.32V259zM121 276.53c0 7-4.35 11.18-11.61 11.18s-11.57-4.17-11.57-11.18v-20.3h3.27v20.13c0 5.2 3.09 8.29 8.3 8.29s8.34-3.09 8.34-8.29v-20.13H121zM139.36 256.23c6.54 0 10.53 3.44 10.53 9.2a8.57 8.57 0 01-6.79 8.69l7.27 13.07h-3.66l-6.83-12.6h-7.06v12.6h-3.26v-31zm-6.54 2.77v12.9h6.63c4.47 0 7.13-2.4 7.13-6.45s-2.75-6.45-7.35-6.45zM169 268.74l11.82 18.45h-3.87l-10.15-16.12-6.36 7v9.11h-3.27v-31h3.27v17.85l15.87-17.85h4.08zM208.42 276.53c0 7-4.35 11.18-11.61 11.18s-11.57-4.17-11.57-11.18v-20.3h3.27v20.13c0 5.2 3.09 8.29 8.3 8.29s8.34-3.09 8.34-8.29v-20.13h3.27z" /></g></g></symbol><symbol viewBox="0 0 282.89 86.04" id="logo-fi"><defs><style>#logo-fi .cls-1{fill:#231f20}</style></defs><g id="logo-fi_Layer_2" data-name="Layer 2"><g id="logo-fi_Layer_1-2" data-name="Layer 1"><path class="cls-1" d="M36.61 86l-.07-3.56a.75.75 0 00-.38-.64 2.61 2.61 0 01-.09-4.59.74.74 0 00.38-.66c-.11-6-.23-10.78-.46-14.52-.13-2.11-.29-3.73-.48-5a6 6 0 00-.92-2.82 2.43 2.43 0 00-1.8-.93 2.8 2.8 0 00-1.8.85 2.71 2.71 0 01-1.83.73 2.39 2.39 0 01-1.67-.66 2.28 2.28 0 01-.71-1.66v-.3a.76.76 0 00-.3-.7.83.83 0 00-.48-.15.75.75 0 00-.26 0 2.64 2.64 0 01-.86.15 2.5 2.5 0 01-1.9-.88 2.29 2.29 0 01-.52-1.46 2.32 2.32 0 01.3-1.12.79.79 0 000-.76.78.78 0 00-.66-.38 2.44 2.44 0 01-2.07-1.25 2.11 2.11 0 01-.28-1.07 2.34 2.34 0 01.69-1.64.76.76 0 00.21-.69.79.79 0 00-.47-.55 2.3 2.3 0 01-.45-4.14.75.75 0 00-.05-1.3 2.34 2.34 0 01-1.25-2 2.29 2.29 0 011-1.9.76.76 0 00.33-.56.78.78 0 00-.24-.61 2.36 2.36 0 01-.74-1.7 2.18 2.18 0 01.24-1 2.45 2.45 0 012.2-1.3.79.79 0 00.69-.41.76.76 0 00-.07-.81 2.38 2.38 0 01-.46-1.38 2.13 2.13 0 01.25-1 2.4 2.4 0 011.81-1.28.8.8 0 00.56-.25.73.73 0 00.13-.57.75.75 0 00-.76-.64h-.12a4.1 4.1 0 00-.48.1L16.45 4.68a4.26 4.26 0 012.05-2.76 4.16 4.16 0 012.11-.59 3.26 3.26 0 011.71.46l.17 1c1 6.31 3.42 21.08 3.92 23.37a4.3 4.3 0 01.11.87 3 3 0 01-.7 1.69l-.13.22a18.5 18.5 0 00-2.15 4.8 14.78 14.78 0 00-.61 4.36c0 5.18 2.14 10.1 5.28 12.26a6.24 6.24 0 003.41 1.25A3.26 3.26 0 0034.44 50a6.86 6.86 0 00.86-3.64v-.44c0-1 0-2.36-.07-3.95s0-3.4-.07-5.14a32.9 32.9 0 00-.75-7.48l-.06-.14a1.2 1.2 0 00-.09-.21v-.05a5.65 5.65 0 00-3.48-2.48v-.88a14.81 14.81 0 01.15-2.06c1.25-1.41 3.83-2.32 6.61-2.32h.08a11.38 11.38 0 014.64.95.88.88 0 00.24.11 5.68 5.68 0 011.72 1.26 14.59 14.59 0 01.15 2.06v.88a5.65 5.65 0 00-3.48 2.48 1.29 1.29 0 00-.12.26.53.53 0 000 .12c-.48 1.38-.64 3.9-.75 7.5 0 1.74-.06 3.55-.08 5.15s0 3-.06 3.94v.44a6.83 6.83 0 00.7 3.64 3.25 3.25 0 002.81 1.61 6.37 6.37 0 003.41-1.25c3.15-2.16 5.28-7.08 5.29-12.26a14.82 14.82 0 00-.62-4.36 18.68 18.68 0 00-2.14-4.8l-.15-.24a2.89 2.89 0 01-.68-1.7 4.58 4.58 0 01.11-.86c.53-2.42 3.19-18.84 4.06-24.24v-.13a3.28 3.28 0 011.72-.46 4.21 4.21 0 012.11.59 4.26 4.26 0 012 2.76L52.24 21a4.1 4.1 0 00-.48-.1h-.12a.77.77 0 00-.77.65.76.76 0 00.66.86 2.44 2.44 0 011.81 1.29 2.25 2.25 0 01.25 1 2.32 2.32 0 01-.47 1.38l-.06.09a.82.82 0 00-.09.39v.15a.79.79 0 00.64.51h.18a2.44 2.44 0 012.11 1.31 2.07 2.07 0 01.25 1 2.32 2.32 0 01-.74 1.69.75.75 0 00-.24.62.81.81 0 00.33.56 2.28 2.28 0 011 1.86 2.34 2.34 0 01-1.25 2 .77.77 0 00-.41.65.75.75 0 00.36.66 2.37 2.37 0 011.1 2 2.34 2.34 0 01-1.54 2.18.74.74 0 00-.48.55.78.78 0 00.2.69 2.31 2.31 0 01.52 2.83 2.48 2.48 0 01-2.09 1.25.78.78 0 00-.65.38.77.77 0 000 .75 2.25 2.25 0 01-.26 2.59 2.46 2.46 0 01-1.9.87 2.54 2.54 0 01-.86-.14.75.75 0 00-.26-.05.73.73 0 00-.47.17.72.72 0 00-.3.68v.31a2.28 2.28 0 01-.71 1.66 2.41 2.41 0 01-1.67.66 2.66 2.66 0 01-1.81-.71 2.77 2.77 0 00-1.82-.86 2.4 2.4 0 00-1.8.91 6.1 6.1 0 00-.92 2.82c-.62 4-.8 11.78-.94 19.47a.76.76 0 00.38.67 2.63 2.63 0 011.34 2.28 2.66 2.66 0 01-1.41 2.31.73.73 0 00-.4.65L38.42 86zM46 67.26a3.19 3.19 0 01-1.54-.37L44 56a4.22 4.22 0 001.9.46h.1l2.12 9.94a2.77 2.77 0 01-1.86.84zm-17 0h-.27a2.73 2.73 0 01-1.86-.85L29 56.47h.14a4.29 4.29 0 001.9-.46l-.49 10.88a3.3 3.3 0 01-1.55.37zm21.82-.68a2.8 2.8 0 01-1.16-.24l-2.15-10.23a3.64 3.64 0 001.1-.73 3.84 3.84 0 00.27-.29l4.58 10.19a2.87 2.87 0 01-1.3 1 3.3 3.3 0 01-1.31.3zm-26.69 0a3.26 3.26 0 01-1.3-.27 2.87 2.87 0 01-1.3-1l4.58-10.19.27.29a4 4 0 001.09.74l-2.15 10.19a2.74 2.74 0 01-1.16.24zm-4.42-2.09a3.76 3.76 0 01-2.16-.72 3.5 3.5 0 01-1.08-1.23l6.73-9.73a4 4 0 001.67.38h.37l-5 11.23a4 4 0 01-.5.07zm35.53 0a3.89 3.89 0 01-.49 0l-5-11.21v-.07a2.36 2.36 0 00.37 0 4 4 0 001.68-.38l6.73 9.73a3.5 3.5 0 01-1.08 1.23 3.76 3.76 0 01-2.18.7zm-2.19-12.57a1 1 0 00.17-.18 3.8 3.8 0 00.67-1.19l9.16 8.73a3.32 3.32 0 01-.85 1.34 3.64 3.64 0 01-2.4 1.06zm-37.83 9.76a3.64 3.64 0 01-2.4-1.06 3.32 3.32 0 01-.82-1.34l9.16-8.73a4 4 0 00.66 1.19l.18.18zM54 48.52a.29.29 0 000-.09 4 4 0 001.57-.89L67.07 55a3.23 3.23 0 01-.56 1.65 3.55 3.55 0 01-2.33 1.54zm-43.16 9.71a3.48 3.48 0 01-2.32-1.54A3.15 3.15 0 018 55l11.52-7.5a4 4 0 001.57.89.29.29 0 010 .09zm-3.73-4.47A3.51 3.51 0 015.18 52 3 3 0 015 49.65l13.29-5.46a3.64 3.64 0 00-.05.56 3.69 3.69 0 00.34 1.56zm49.36-7.47a3.67 3.67 0 00.33-1.54 3.39 3.39 0 000-.55L70 49.64a3 3 0 01-.16 2.36 3.53 3.53 0 01-1.93 1.78zm.19-3.79a3.84 3.84 0 001-1.38l14.95 2.79a3 3 0 01.24 2.18 3.41 3.41 0 01-1.85 2.3zM4 48.39a3.4 3.4 0 01-1.83-2.3 3 3 0 01.24-2.19l15-2.77a3.89 3.89 0 001 1.37zm-2-5.95a4 4 0 01-1.68-2.82A3.54 3.54 0 011 37l16.64.81a3.73 3.73 0 00-.52 1.84zm56-2.81a3.61 3.61 0 00-.53-1.84L74 37a3.58 3.58 0 01.66 2.64 4 4 0 01-1.65 2.82zM1 35.45a4 4 0 01-1-2.74A3.54 3.54 0 011.2 30l15.69 4.59a3.81 3.81 0 00.5 1.71zm56.59.81a3.73 3.73 0 00.5-1.75L73.82 30A3.55 3.55 0 0175 32.71a4 4 0 01-1 2.74zM1.35 28.41a3.88 3.88 0 01-.43-3.28A3.5 3.5 0 012.7 23l15.23 8.82a4.07 4.07 0 00-.76 1.18zM57.84 33a3.85 3.85 0 00-.75-1.21L72.32 23a3.5 3.5 0 011.78 2.16 3.84 3.84 0 01-.44 3.28zm-.1-3.39a3.74 3.74 0 00-.41-1.7.86.86 0 00-.1-.16l11.89-11.37a3.54 3.54 0 012.37 2 3.89 3.89 0 010 3.27l-13.76 8zM3.52 21.67a3.86 3.86 0 010-3.27 3.53 3.53 0 012.37-2l11.9 11.35a.86.86 0 00-.1.16 3.71 3.71 0 00-.41 1.7zm3.34-6.5a3.83 3.83 0 01.43-3.08 3.53 3.53 0 012.59-1.77L19.93 26a3.71 3.71 0 00-1.11.59zM56.2 26.6a4.23 4.23 0 00-1.11-.6l10-15.69a3.53 3.53 0 012.59 1.77 3.84 3.84 0 01.43 3.07zM11 9.15a4.09 4.09 0 011-2.41 3.65 3.65 0 012.73-1.32h.41l6.3 16.24A3.86 3.86 0 0020.29 23a3.79 3.79 0 00-.18.42zm43.91 14.27a3.79 3.79 0 00-.18-.42 4 4 0 00-1.1-1.31l6.3-16.24a3 3 0 01.42 0 3.65 3.65 0 012.72 1.32 4 4 0 011 2.41zm-22.58-2.78a6.76 6.76 0 01-1.57-4.34 8.11 8.11 0 010-.86A9.47 9.47 0 0133.2 11l.23-.3c1-1.33 2.12-2.7 2.14-4.34a3.78 3.78 0 000-.51 11.85 11.85 0 01-.13-1.68A6.18 6.18 0 0136.81 0v.36a12.67 12.67 0 002.12 6.18c-.48.7-1 1.38-1.57 2.09s-.89 1.14-1.36 1.73c-1.4 1.94-2.76 4.06-2.76 6.66a8.09 8.09 0 00.64 3.07 11.45 11.45 0 00-1.55.55zm10.08-.11a13 13 0 00-4.9-.91 13.7 13.7 0 00-2 .15 6.66 6.66 0 01-.68-2.77c0-2.17 1.22-4 2.48-5.78.4-.56.84-1.13 1.27-1.68L39 9c.35-.46.71-.93 1.05-1.4l.56-.84c.23-.36.44-.71.64-1.07A11.72 11.72 0 0042 4.2a12.11 12.11 0 01.32 2.73 9.11 9.11 0 010 .93A6.21 6.21 0 0142 9.34c-.1.33-.23.67-.38 1a12.44 12.44 0 01-.62 1.25c-.17.33-.36.64-.55.95s-.35.58-.53.86a6.83 6.83 0 00-1.34 3.06 1.92 1.92 0 000 .41c.13.51.31 1.19 1.16 1.29a1.11 1.11 0 001-.68 2.32 2.32 0 00.2-1 3.39 3.39 0 00-.32-1.4c.3-.54.71-1.18 1.1-1.79.22-.37.47-.79.71-1.25a9.63 9.63 0 011.36 4.55 6.3 6.3 0 01-1.38 3.94zm-9.95-11.1a12.9 12.9 0 00.3-2.67 10.34 10.34 0 00-.4-2.86A5.12 5.12 0 0134 6.72a6.82 6.82 0 01-1.54 2.71zM107.36 11.41v21.28h-5.54V11.41h-7.23V6.77h20v4.64zM139.65 23.26c0 6-4 9.93-10.83 9.93S118 29.3 118 23.26V6.77h5.55v16c0 3.38 1.9 5.39 5.29 5.39s5.29-2 5.29-5.39v-16h5.54zM154.56 6.77c6 0 10 3 10 8.53a7.58 7.58 0 01-4.93 7.38l5.44 10h-5.87l-4.57-9.08h-3.74v9.08h-5.44V6.77zm-3.67 4.64v7.74h4c2.44 0 4.14-1.22 4.14-3.85s-1.77-3.89-4.29-3.89zM190.81 23.26c0 6-4 9.93-10.84 9.93s-10.83-3.89-10.83-9.93V6.77h5.54v16c0 3.38 1.91 5.39 5.29 5.39s5.29-2 5.29-5.39v-16h5.55zM218 33.08l-14.27-13.64L202 18v14.69h-5.43V6.37h.21L211 20l1.65 1.47V6.77h5.47v26.31zM99.62 41.62l5.94 10.62 5.94-10.62h6.27l-9.43 15.87v10.05h-5.55V57.49L93.4 41.62zM120.25 67.54V41.62h5.55v21.27h10v4.65zM139.76 67.54V41.62h5.55v25.92zM163.38 41.12a13.46 13.46 0 11-13.57 13.46 13.28 13.28 0 0113.57-13.46zm0 21.85c4.68 0 8-3.75 8-8.39s-3.31-8.39-8-8.39-8 3.78-8 8.39 3.32 8.42 8 8.42zM187 58.68v8.86h-5.54V41.62h8.42c6 0 10 3 10 8.53s-4 8.53-10 8.53zm0-12.42V54h3.17c2.41 0 4.06-1.26 4.06-3.85s-1.72-3.89-4.21-3.89zM203.91 67.54V41.62h5.55v25.92zM214.43 66.57v-5.33a17 17 0 006.51 1.87 9.39 9.39 0 002.3-.14c2-.29 3.14-1 3.14-2.31 0-1.73-1.55-2.63-5.12-3.92-4.53-1.66-7.19-3.56-7.19-8.06s3.81-7.56 9.39-7.56a17.84 17.84 0 016.77 1.29v5.11a13.27 13.27 0 00-6.34-1.58c-2.66 0-4.39 1-4.39 2.7 0 1.51 1.4 2.56 4.93 3.89 4.54 1.76 7.35 3.67 7.35 8 0 4.68-3.53 7.49-9.65 7.49a20.36 20.36 0 01-7.7-1.45zM246.43 46.26v21.28h-5.55V46.26h-7.23v-4.64h20v4.64zM269.32 41.12a13.46 13.46 0 11-13.57 13.46 13.28 13.28 0 0113.57-13.46zm0 21.85c4.68 0 8-3.75 8-8.39s-3.31-8.39-8-8.39-8 3.78-8 8.39 3.32 8.42 8 8.42z" /></g></g></symbol></defs><use id="Icon-circle-usage" xlink:href="#Icon-circle" class="sprite-symbol-usage" /><use id="Icon-circle-primary-usage" xlink:href="#Icon-circle-primary" class="sprite-symbol-usage" /><use id="Icon-dropdown-usage" xlink:href="#Icon-dropdown" class="sprite-symbol-usage" /><use id="Icon-external-usage" xlink:href="#Icon-external" class="sprite-symbol-usage" /><use id="Icon-external-light-usage" xlink:href="#Icon-external-light" class="sprite-symbol-usage" /><use id="Icon-external-primary-usage" xlink:href="#Icon-external-primary" class="sprite-symbol-usage" /><use id="Icon-hamburger-primary-usage" xlink:href="#Icon-hamburger-primary" class="sprite-symbol-usage" /><use id="Icon-less-usage" xlink:href="#Icon-less" class="sprite-symbol-usage" /><use id="Icon-less-light-usage" xlink:href="#Icon-less-light" class="sprite-symbol-usage" /><use id="Icon-more-usage" xlink:href="#Icon-more" class="sprite-symbol-usage" /><use id="Icon-more-light-usage" xlink:href="#Icon-more-light" class="sprite-symbol-usage" /><use id="Icon-search-usage" xlink:href="#Icon-search" class="sprite-symbol-usage" /><use id="Icon-search-light-usage" xlink:href="#Icon-search-light" class="sprite-symbol-usage" /><use id="icon-alert-usage" xlink:href="#icon-alert" class="sprite-symbol-usage" /><use id="icon-warning-usage" xlink:href="#icon-warning" class="sprite-symbol-usage" /><use id="logo-en-usage" xlink:href="#logo-en" class="sprite-symbol-usage" /><use id="logo-en-fi-usage" xlink:href="#logo-en-fi" class="sprite-symbol-usage" /><use id="logo-fi-usage" xlink:href="#logo-fi" class="sprite-symbol-usage" /></svg>